<svg width="234" height="13" viewBox="0 0 234 13" fill="none" xmlns="http://www.w3.org/2000/svg">
<path d="M5.47297 8.368C4.57697 8.368 3.91697 8.128 3.49297 7.648C3.06897 7.168 2.85697 6.512 2.85697 5.68C2.85697 4.84 3.08897 4.184 3.55297 3.712C4.02497 3.232 4.65697 2.992 5.44897 2.992C5.73697 2.992 6.00497 3.02 6.25297 3.076C6.50897 3.124 6.74497 3.204 6.96097 3.316L6.66097 3.928C6.47697 3.84 6.28097 3.776 6.07297 3.736C5.87297 3.688 5.66097 3.664 5.43697 3.664C4.90897 3.664 4.49297 3.84 4.18897 4.192C3.88497 4.544 3.73297 5.044 3.73297 5.692C3.73297 7.028 4.32097 7.696 5.49697 7.696C5.74497 7.696 5.97297 7.68 6.18097 7.648C6.38897 7.616 6.58097 7.568 6.75697 7.504V8.176C6.58097 8.232 6.38497 8.28 6.16897 8.32C5.96097 8.352 5.72897 8.368 5.47297 8.368ZM5.29297 10.66C4.61297 10.66 3.97297 10.532 3.37297 10.276C2.77297 10.02 2.24497 9.668 1.78897 9.22C1.34097 8.764 0.988969 8.236 0.732969 7.636C0.476969 7.036 0.348969 6.396 0.348969 5.716C0.348969 5.028 0.476969 4.388 0.732969 3.796C0.988969 3.196 1.34097 2.672 1.78897 2.224C2.24497 1.768 2.77297 1.412 3.37297 1.156C3.97297 0.899999 4.61297 0.771999 5.29297 0.771999C5.98097 0.771999 6.62097 0.899999 7.21297 1.156C7.81297 1.412 8.33697 1.768 8.78497 2.224C9.24097 2.672 9.59697 3.196 9.85297 3.796C10.109 4.388 10.237 5.028 10.237 5.716C10.237 6.396 10.109 7.036 9.85297 7.636C9.59697 8.236 9.24097 8.764 8.78497 9.22C8.33697 9.668 7.81297 10.02 7.21297 10.276C6.62097 10.532 5.98097 10.66 5.29297 10.66ZM5.29297 9.988C5.88497 9.988 6.43697 9.88 6.94897 9.664C7.46897 9.44 7.92497 9.132 8.31697 8.74C8.70897 8.348 9.01297 7.896 9.22897 7.384C9.45297 6.864 9.56497 6.308 9.56497 5.716C9.56497 5.124 9.45297 4.572 9.22897 4.06C9.01297 3.54 8.70897 3.084 8.31697 2.692C7.92497 2.3 7.46897 1.996 6.94897 1.78C6.43697 1.556 5.88497 1.444 5.29297 1.444C4.70097 1.444 4.14497 1.556 3.62497 1.78C3.11297 1.996 2.66097 2.3 2.26897 2.692C1.87697 3.084 1.56897 3.54 1.34497 4.06C1.12897 4.572 1.02097 5.124 1.02097 5.716C1.02097 6.308 1.12897 6.864 1.34497 7.384C1.56897 7.896 1.87697 8.348 2.26897 8.74C2.66097 9.132 3.11297 9.44 3.62497 9.664C4.14497 9.88 4.70097 9.988 5.29297 9.988ZM22.8948 2.08H21.9828V7.672L22.0308 8.944H22.0188L21.1668 7.36L17.8668 2.08H16.6788V10H17.5908V4.408L17.5428 3.136H17.5548L18.3948 4.696L21.7068 10H22.8948V2.08ZM31.0353 2.98V2.08H25.4913V10H26.4513V6.436H30.0273V5.536H26.4513V2.98H31.0353ZM38.3835 2.08H31.9035V2.98H34.6635V10H35.6235V2.98H38.3835V2.08ZM51.4754 2.08H49.9994L48.2714 6.904L47.6594 8.872H47.6354L47.0354 6.892L45.2954 2.08H43.8194V10H44.7314V5.02L44.6234 2.932H44.6354L47.2394 10H48.0554L50.6594 2.932H50.6714L50.5634 5.02V10H51.4754V2.08ZM58.7313 9.304C58.3953 9.304 58.2753 9.16 58.2753 8.872V5.92C58.2753 4.528 57.2793 3.88 55.9113 3.88C54.7473 3.88 53.7993 4.456 53.4873 5.344L54.1953 5.86C54.5193 5.104 55.1193 4.72 55.9113 4.72C56.8113 4.72 57.3153 5.248 57.3153 6.04V6.376L55.7193 6.64C54.1713 6.904 53.3793 7.612 53.3793 8.512C53.3793 9.592 54.2913 10.12 55.4193 10.12C56.1873 10.12 56.9673 9.796 57.3513 9.232C57.4593 9.904 57.8433 10.12 58.4313 10.12C58.7313 10.12 58.9833 10.06 59.1513 10L59.2113 9.244C59.0673 9.28 58.8873 9.304 58.7313 9.304ZM55.4673 9.28C54.7833 9.28 54.3753 9.016 54.3753 8.512C54.3753 7.948 54.9153 7.6 55.9713 7.408L57.3153 7.156V7.984C57.3153 8.776 56.4273 9.28 55.4673 9.28ZM63.4402 3.88C62.5042 3.88 61.8562 4.252 61.5202 4.984L61.3882 4H60.6082V10H61.5682V6.76C61.5682 5.416 62.4322 4.78 63.1522 4.78C63.4642 4.78 63.7282 4.84 63.9082 4.936L64.1002 4C63.9202 3.904 63.6442 3.88 63.4402 3.88ZM69.7546 10H70.9186L68.4346 6.34L70.7746 4H69.5746L66.4666 7.108V1.24H65.5066V10H66.4666V8.308L67.7386 7.036L69.7546 10ZM77.2523 6.688C77.2523 5.14 76.3043 3.88 74.5643 3.88C72.7523 3.88 71.7323 5.056 71.7323 7C71.7323 8.944 72.8243 10.12 74.6363 10.12C75.9323 10.12 76.6763 9.628 77.1323 8.812L76.3283 8.392C76.1123 8.968 75.5123 9.28 74.6363 9.28C73.5323 9.28 72.8003 8.572 72.6803 7.36H77.2043C77.2283 7.192 77.2523 6.964 77.2523 6.688ZM74.5643 4.72C75.5843 4.72 76.1963 5.404 76.3283 6.508H72.6923C72.8363 5.38 73.4963 4.72 74.5643 4.72ZM82.2372 8.776C81.9612 9.052 81.6492 9.22 81.2172 9.22C80.6892 9.22 80.3172 8.932 80.3172 8.344V4.828H82.5372V4H80.3172V2.296L79.3572 2.56V4H78.1572V4.828H79.3572V8.512C79.3692 9.676 80.1372 10.12 81.0252 10.12C81.6852 10.12 82.2012 9.916 82.5732 9.58L82.2372 8.776ZM84.4085 8.56C83.9405 8.56 83.6285 8.872 83.6285 9.34C83.6285 9.808 83.9405 10.12 84.4085 10.12C84.8765 10.12 85.1885 9.808 85.1885 9.34C85.1885 8.872 84.8765 8.56 84.4085 8.56ZM97.5178 2.08H96.5578V6.808C96.5578 8.464 95.8858 9.22 94.4098 9.22C92.9338 9.22 92.2618 8.464 92.2618 6.808V2.08H91.3018V7.048C91.3018 9.088 92.4178 10.12 94.4098 10.12C96.4138 10.12 97.5178 9.088 97.5178 7.048V2.08ZM101.777 10.12C103.313 10.12 104.285 9.388 104.285 8.344C104.285 7.36 103.685 6.856 102.005 6.58C100.781 6.376 100.385 6.112 100.385 5.596C100.385 5.152 100.985 4.72 101.789 4.72C102.545 4.72 103.085 5.008 103.349 5.8L104.165 5.32C103.829 4.336 103.073 3.88 101.789 3.88C100.325 3.88 99.4251 4.708 99.4251 5.68C99.4251 6.688 100.049 7.156 101.753 7.468C102.953 7.684 103.325 7.948 103.325 8.392C103.325 8.884 102.857 9.28 101.873 9.28C101.009 9.28 100.265 8.956 99.9771 8.224L99.1971 8.764C99.6531 9.688 100.673 10.12 101.777 10.12ZM111.213 6.688C111.213 5.14 110.265 3.88 108.525 3.88C106.713 3.88 105.693 5.056 105.693 7C105.693 8.944 106.785 10.12 108.597 10.12C109.893 10.12 110.637 9.628 111.093 8.812L110.289 8.392C110.073 8.968 109.473 9.28 108.597 9.28C107.493 9.28 106.761 8.572 106.641 7.36H111.165C111.189 7.192 111.213 6.964 111.213 6.688ZM108.525 4.72C109.545 4.72 110.157 5.404 110.289 6.508H106.653C106.797 5.38 107.457 4.72 108.525 4.72ZM120.229 8.776C119.953 9.052 119.641 9.22 119.209 9.22C118.681 9.22 118.309 8.932 118.309 8.344V4.828H120.529V4H118.309V2.296L117.349 2.56V4H116.149V4.828H117.349V8.512C117.361 9.676 118.129 10.12 119.017 10.12C119.677 10.12 120.193 9.916 120.565 9.58L120.229 8.776ZM124.837 3.88C124.021 3.88 123.301 4.18 122.881 4.9V1.24H121.921V10H122.881V6.82C122.881 5.284 123.865 4.72 124.741 4.72C125.569 4.72 126.217 5.164 126.217 6.496V10H127.177V6.16C127.177 4.612 126.121 3.88 124.837 3.88ZM129.83 2.848C130.262 2.848 130.55 2.56 130.55 2.128C130.55 1.696 130.262 1.408 129.83 1.408C129.398 1.408 129.11 1.696 129.11 2.128C129.11 2.56 129.398 2.848 129.83 2.848ZM130.31 4H129.35V10H130.31V4ZM134.578 10.12C136.114 10.12 137.086 9.388 137.086 8.344C137.086 7.36 136.486 6.856 134.806 6.58C133.582 6.376 133.186 6.112 133.186 5.596C133.186 5.152 133.786 4.72 134.59 4.72C135.346 4.72 135.886 5.008 136.15 5.8L136.966 5.32C136.63 4.336 135.874 3.88 134.59 3.88C133.126 3.88 132.226 4.708 132.226 5.68C132.226 6.688 132.85 7.156 134.554 7.468C135.754 7.684 136.126 7.948 136.126 8.392C136.126 8.884 135.658 9.28 134.674 9.28C133.81 9.28 133.066 8.956 132.778 8.224L131.998 8.764C132.454 9.688 133.474 10.12 134.578 10.12ZM146.057 8.776C145.781 9.052 145.469 9.22 145.037 9.22C144.509 9.22 144.137 8.932 144.137 8.344V4.828H146.357V4H144.137V2.296L143.177 2.56V4H141.977V4.828H143.177V8.512C143.189 9.676 143.957 10.12 144.845 10.12C145.505 10.12 146.021 9.916 146.393 9.58L146.057 8.776ZM152.897 6.688C152.897 5.14 151.949 3.88 150.209 3.88C148.397 3.88 147.377 5.056 147.377 7C147.377 8.944 148.469 10.12 150.281 10.12C151.577 10.12 152.321 9.628 152.777 8.812L151.973 8.392C151.757 8.968 151.157 9.28 150.281 9.28C149.177 9.28 148.445 8.572 148.325 7.36H152.849C152.873 7.192 152.897 6.964 152.897 6.688ZM150.209 4.72C151.229 4.72 151.841 5.404 151.973 6.508H148.337C148.481 5.38 149.141 4.72 150.209 4.72ZM161.693 3.88C160.937 3.88 159.977 4.24 159.605 5.056C159.209 4.252 158.381 3.88 157.541 3.88C156.797 3.88 156.053 4.204 155.621 4.936L155.561 4H154.721V10H155.681V6.796C155.681 5.308 156.665 4.72 157.457 4.72C158.249 4.72 158.873 5.164 158.873 6.256V10H159.833V6.712C159.833 5.428 160.673 4.72 161.609 4.72C162.401 4.72 163.025 5.164 163.025 6.256V10H163.985V6.16C163.985 4.576 162.845 3.88 161.693 3.88ZM169.111 3.88C168.163 3.88 167.407 4.36 167.059 5.044L166.999 4H166.159V12.52H167.119V9.064C167.491 9.688 168.211 10.12 169.111 10.12C170.779 10.12 171.847 8.956 171.847 7C171.847 5.044 170.779 3.88 169.111 3.88ZM169.003 9.28C167.863 9.28 167.119 8.428 167.119 7.072V6.928C167.119 5.572 167.863 4.72 169.003 4.72C170.179 4.72 170.887 5.608 170.887 7C170.887 8.392 170.179 9.28 169.003 9.28ZM174.63 1.24H173.67V8.512C173.67 9.604 174.138 10.12 175.11 10.12C175.422 10.12 175.746 10.06 175.998 9.952L176.154 9.028C175.806 9.16 175.602 9.196 175.278 9.196C174.786 9.196 174.63 9.004 174.63 8.392V1.24ZM182.306 9.304C181.97 9.304 181.85 9.16 181.85 8.872V5.92C181.85 4.528 180.854 3.88 179.486 3.88C178.322 3.88 177.374 4.456 177.062 5.344L177.77 5.86C178.094 5.104 178.694 4.72 179.486 4.72C180.386 4.72 180.89 5.248 180.89 6.04V6.376L179.294 6.64C177.746 6.904 176.954 7.612 176.954 8.512C176.954 9.592 177.866 10.12 178.994 10.12C179.762 10.12 180.542 9.796 180.926 9.232C181.034 9.904 181.418 10.12 182.006 10.12C182.306 10.12 182.558 10.06 182.726 10L182.786 9.244C182.642 9.28 182.462 9.304 182.306 9.304ZM179.042 9.28C178.358 9.28 177.95 9.016 177.95 8.512C177.95 7.948 178.49 7.6 179.546 7.408L180.89 7.156V7.984C180.89 8.776 180.002 9.28 179.042 9.28ZM187.284 8.776C187.008 9.052 186.696 9.22 186.264 9.22C185.736 9.22 185.364 8.932 185.364 8.344V4.828H187.584V4H185.364V2.296L184.404 2.56V4H183.204V4.828H184.404V8.512C184.416 9.676 185.184 10.12 186.072 10.12C186.732 10.12 187.248 9.916 187.62 9.58L187.284 8.776ZM194.123 6.688C194.123 5.14 193.175 3.88 191.435 3.88C189.623 3.88 188.603 5.056 188.603 7C188.603 8.944 189.695 10.12 191.507 10.12C192.803 10.12 193.547 9.628 194.003 8.812L193.199 8.392C192.983 8.968 192.383 9.28 191.507 9.28C190.403 9.28 189.671 8.572 189.551 7.36H194.075C194.099 7.192 194.123 6.964 194.123 6.688ZM191.435 4.72C192.455 4.72 193.067 5.404 193.199 6.508H189.563C189.707 5.38 190.367 4.72 191.435 4.72ZM201.243 3.088C201.243 2.368 201.639 2.056 202.335 2.056C202.611 2.056 202.827 2.116 203.019 2.236L203.271 1.456C203.055 1.276 202.671 1.18 202.251 1.18C200.931 1.18 200.283 1.924 200.283 2.992V4H199.083V4.828H200.283V10H201.243V4.828H203.247V4H201.243V3.088ZM207.358 3.88C206.422 3.88 205.774 4.252 205.438 4.984L205.306 4H204.526V10H205.486V6.76C205.486 5.416 206.35 4.78 207.07 4.78C207.382 4.78 207.646 4.84 207.826 4.936L208.018 4C207.838 3.904 207.562 3.88 207.358 3.88ZM214.385 6.688C214.385 5.14 213.437 3.88 211.697 3.88C209.885 3.88 208.865 5.056 208.865 7C208.865 8.944 209.957 10.12 211.769 10.12C213.065 10.12 213.809 9.628 214.265 8.812L213.461 8.392C213.245 8.968 212.645 9.28 211.769 9.28C210.665 9.28 209.933 8.572 209.813 7.36H214.337C214.361 7.192 214.385 6.964 214.385 6.688ZM211.697 4.72C212.717 4.72 213.329 5.404 213.461 6.508H209.825C209.969 5.38 210.629 4.72 211.697 4.72ZM221.358 6.688C221.358 5.14 220.41 3.88 218.67 3.88C216.858 3.88 215.838 5.056 215.838 7C215.838 8.944 216.93 10.12 218.742 10.12C220.038 10.12 220.782 9.628 221.238 8.812L220.434 8.392C220.218 8.968 219.618 9.28 218.742 9.28C217.638 9.28 216.906 8.572 216.786 7.36H221.31C221.334 7.192 221.358 6.964 221.358 6.688ZM218.67 4.72C219.69 4.72 220.302 5.404 220.434 6.508H216.798C216.942 5.38 217.602 4.72 218.67 4.72ZM224.094 1.24H223.134V8.512C223.134 9.604 223.602 10.12 224.574 10.12C224.886 10.12 225.21 10.06 225.462 9.952L225.618 9.028C225.27 9.16 225.066 9.196 224.742 9.196C224.25 9.196 224.094 9.004 224.094 8.392V1.24ZM231.646 4H230.614L229.21 7.792L228.778 8.98L228.406 7.912L226.906 4H225.814L228.322 9.988L228.01 10.768C227.71 11.56 227.338 11.74 226.918 11.74C226.582 11.74 226.222 11.644 225.946 11.26L225.61 12.076C225.946 12.436 226.33 12.58 226.93 12.58C227.818 12.58 228.358 12.184 228.826 11.008L231.646 4ZM232.557 8.56C232.089 8.56 231.777 8.872 231.777 9.34C231.777 9.808 232.089 10.12 232.557 10.12C233.025 10.12 233.337 9.808 233.337 9.34C233.337 8.872 233.025 8.56 232.557 8.56Z" fill="#CCCCCC"/>
</svg>
