<svg width="20.000000" height="20.000000" viewBox="0 0 20 20" fill="none" xmlns="http://www.w3.org/2000/svg" xmlns:xlink="http://www.w3.org/1999/xlink">
	<desc>
			Created with Pixso.
	</desc>
	<defs/>
	<path id="Vector (Stroke)" d="M6.17 12.44C6.28 12.77 6.1 13.13 5.77 13.24C4.71 13.59 4.15 14.48 3.85 15.39C3.73 15.75 3.66 16.09 3.61 16.38C3.9 16.33 4.25 16.26 4.6 16.14C5.51 15.84 6.4 15.28 6.75 14.22C6.86 13.89 7.22 13.71 7.55 13.83C7.87 13.93 8.05 14.29 7.94 14.62C7.4 16.2 6.08 16.97 5 17.33C4.45 17.51 3.94 17.6 3.56 17.64C3.38 17.67 3.22 17.68 3.11 17.68C3.06 17.69 3.01 17.69 2.98 17.69C2.96 17.69 2.95 17.69 2.94 17.69L2.93 17.69L2.93 17.69L2.93 17.69L2.93 17.69C2.92 17.69 2.92 17.69 2.92 17.07C2.3 17.07 2.3 17.07 2.3 17.07L2.3 17.06L2.3 17.06L2.3 17.06L2.3 17.05C2.3 17.04 2.3 17.03 2.3 17.01C2.3 16.98 2.3 16.93 2.31 16.88C2.31 16.77 2.32 16.61 2.35 16.43C2.39 16.05 2.48 15.54 2.66 14.99C3.02 13.91 3.79 12.59 5.37 12.05C5.7 11.94 6.06 12.12 6.17 12.44ZM2.92 17.07L2.3 17.07C2.3 17.41 2.58 17.69 2.92 17.69L2.92 17.07Z" fill="#FFFFFF" fill-opacity="1.000000" fill-rule="evenodd"/>
	<path id="Vector (Stroke)" d="M16.54 3.45C15.82 3.34 14.03 3.3 12.2 5.13L7.34 10L10 12.65L14.86 7.79C16.69 5.96 16.65 4.17 16.54 3.45ZM16.72 2.21C15.72 2.07 13.5 2.07 11.32 4.25L6.01 9.55C5.9 9.67 5.83 9.83 5.83 10C5.83 10.16 5.9 10.32 6.01 10.44L9.55 13.98C9.8 14.22 10.19 14.22 10.44 13.98L15.74 8.67C17.92 6.49 17.92 4.27 17.78 3.27C17.74 3 17.62 2.75 17.43 2.56C17.24 2.37 16.99 2.25 16.72 2.21Z" fill="#FFFFFF" fill-opacity="1.000000" fill-rule="evenodd"/>
	<path id="Vector (Stroke)" d="M14.42 8.49C14.76 8.49 15.04 8.77 15.04 9.11L15.04 14.16L15.04 14.17C15.04 14.5 14.9 14.81 14.67 15.04L12.15 17.57C11.99 17.73 11.79 17.84 11.57 17.9C11.35 17.95 11.12 17.95 10.9 17.88C10.68 17.82 10.49 17.69 10.34 17.53C10.19 17.36 10.08 17.15 10.04 16.93L9.38 13.66C9.31 13.32 9.53 12.99 9.87 12.92C10.21 12.85 10.54 13.07 10.61 13.41L11.26 16.69L13.79 14.15L13.79 9.11C13.79 8.77 14.07 8.49 14.42 8.49Z" fill="#FFFFFF" fill-opacity="1.000000" fill-rule="evenodd"/>
	<path id="Vector (Stroke)" d="M5.82 4.95L5.83 4.95L10.88 4.95C11.22 4.95 11.5 5.23 11.5 5.57C11.5 5.92 11.22 6.2 10.88 6.2L5.84 6.2L5.83 6.2L5.83 6.2L3.3 8.73L3.31 8.73L6.58 9.38C6.92 9.45 7.14 9.78 7.07 10.12C7 10.46 6.67 10.68 6.33 10.61L3.06 9.95C3.06 9.95 3.06 9.95 3.06 9.95C2.84 9.91 2.63 9.8 2.47 9.65C2.3 9.5 2.17 9.31 2.11 9.09C2.04 8.87 2.04 8.64 2.09 8.42C2.15 8.2 2.26 8 2.42 7.84L2.42 7.84L2.42 7.84L4.95 5.32C5.18 5.09 5.49 4.95 5.82 4.95Z" fill="#FFFFFF" fill-opacity="1.000000" fill-rule="evenodd"/>
</svg>
